<svg xmlns="http://www.w3.org/2000/svg" viewBox="0 0 51 102.5" fill="none" x="0px" y="0px"><path fill-rule="evenodd" clip-rule="evenodd" d="M40.1848 5.6629L50.4306 0.25L50.8657 11.8296L47.362 17.8983L27.7407 51.8832L35.5087 56.3681C37.1175 57.2969 37.5433 59.5715 36.4596 61.4484C35.376 63.3253 33.1933 64.0939 31.5845 63.1651L23.8165 58.6802L22.1347 61.5932L11.4537 55.4266L13.1355 52.5136L5.36754 48.0287C3.75873 47.0999 3.33301 44.8253 4.41666 42.9484C5.50031 41.0715 7.68298 40.3029 9.29178 41.2317L17.0598 45.7166L36.681 11.7316L40.1848 5.6629ZM21.9148 48.5196L41.536 14.5347L42.507 15.0953L22.8858 49.0802L21.9148 48.5196ZM10.8931 56.3976L9.21128 59.3105L19.8923 65.4772L21.5741 62.5642L10.8931 56.3976ZM19.3317 66.4482L17.6498 69.3612L6.96886 63.1945L8.65068 60.2815L19.3317 66.4482ZM6.40825 64.1655L4.72643 67.0785L15.4074 73.2452L17.0892 70.3322L6.40825 64.1655ZM14.8468 74.2162L13.165 77.1292L2.484 70.9625L4.16582 68.0495L14.8468 74.2162ZM1.9234 71.9335L0.24158 74.8465C-0.0680325 75.3828 2.07199 77.198 5.02147 78.9009C7.97094 80.6037 10.6129 81.5495 10.9226 81.0132L12.6044 78.1002L1.9234 71.9335Z" fill="black"/></svg>